<?xml version="1.0" encoding="utf-8"?>
<!-- Generator: Adobe Illustrator 18.1.0, SVG Export Plug-In . SVG Version: 6.00 Build 0)  -->
<!DOCTYPE svg PUBLIC "-//W3C//DTD SVG 1.1//EN" "http://www.w3.org/Graphics/SVG/1.1/DTD/svg11.dtd">
<svg version="1.1" id="Layer_1" xmlns="http://www.w3.org/2000/svg" xmlns:xlink="http://www.w3.org/1999/xlink" x="0px" y="0px"
	 viewBox="0 0 40 45.8" enable-background="new 0 0 40 45.8" xml:space="preserve">
<g>
	<g>
		<path d="M19.1,38.1c5.6,0,9.9-2.4,9.9-8.2v-2.8c0-1.1,0.2-2,0.2-2h-0.1c-1.6,2.9-4.4,4.9-8.7,4.9c-6.8,0-11.6-4.9-11.6-12.3
			c0-7.4,4.4-12.1,11.2-12.1c7.4,0,9.1,4.7,9.1,4.7h0.1c0,0-0.2-0.3-0.2-0.9V6.3h2.2v23.7c0,7.3-5.7,10.1-11.9,10.1
			c-2.9,0-5.6-0.7-8.2-1.9l1-1.8C12.2,36.5,15.4,38.1,19.1,38.1z M29.1,17.8c0-7.7-4-10.1-9.1-10.1c-5.6,0-8.9,3.7-8.9,10.1
			c0,6.4,3.9,10.3,9.4,10.3C25.1,28.1,29.1,25.5,29.1,17.8z"/>
		<path d="M19.3,40.8c-2.9,0-5.7-0.6-8.5-1.9L10,38.6l1.8-3.1l0.6,0.3c0,0,3.1,1.6,6.6,1.6c3.4,0,9.1-1,9.1-7.4v-2.2
			c-1.6,1.7-4,3.1-7.9,3.1c-7.2,0-12.3-5.4-12.3-13C8.1,10,12.8,5,20,5c4.4,0,6.9,1.5,8.3,2.9V5.5h3.7v24.4
			C31.9,38,25.4,40.8,19.3,40.8z M12.2,37.9c2.3,1,4.7,1.5,7.1,1.5c2.6,0,11.2-0.7,11.2-9.4V7h-0.7v2.4c0,0.4,0.1,0.6,0.1,0.6l0.4,1
			l-1.8,0l-0.2-0.5c-0.1-0.2-1.6-4.2-8.3-4.2c-6.4,0-10.4,4.3-10.4,11.3c0,6.9,4.3,11.5,10.8,11.5c3.7,0,6.5-1.5,8.1-4.5l0.2-0.4
			h1.5L30,25.4c0,0-0.2,0.8-0.2,1.8v2.8c0,5.6-4,8.9-10.6,8.9c-2.9,0-5.5-0.9-6.7-1.5L12.2,37.9z M20.5,28.9
			c-6.2,0-10.2-4.3-10.2-11.1C10.4,11,14,6.9,20,6.9c4.5,0,9.8,1.9,9.8,10.9C29.8,24.9,26.4,28.9,20.5,28.9z M20,8.4
			c-5.2,0-8.1,3.4-8.1,9.4c0,5.8,3.4,9.6,8.7,9.6c3.6,0,7.8-1.7,7.8-9.6C28.3,11.5,25.6,8.4,20,8.4z"/>
	</g>
</g>
</svg>
